<svg version="1.1" xmlns="http://www.w3.org/2000/svg" xmlns:xlink="http://www.w3.org/1999/xlink" width="512.000000pt" height="512.000000pt" viewBox="0,0,255.98958,255.98958"><g fill="#aabdc9" fill-rule="nonzero" stroke="none" stroke-width="1" stroke-linecap="butt" stroke-linejoin="miter" stroke-miterlimit="10" stroke-dasharray="" stroke-dashoffset="0" font-family="none" font-weight="none" font-size="none" text-anchor="none" style="mix-blend-mode: normal"><g transform="translate(-0.00521,-0.00521) scale(1.00004,1.00004)"><g><g transform="translate(-0.00821,0.50896) scale(0.5,0.5)"><g transform="translate(0,512) scale(0.1,-0.1)"><path d="M3360,4380c-245,-33 -505,-130 -712,-265l-86,-56l-115,69c-281,169 -583,251 -929,252c-252,0 -567,-60 -700,-133c-73,-40 -68,99 -68,-1737c0,-1864 -7,-1705 78,-1742c57,-26 92,-19 172,32c144,94 316,164 493,201c131,28 364,31 474,6c155,-35 312,-102 463,-197c117,-74 146,-74 259,-1c228,146 450,212 712,212c258,0 497,-72 713,-215c87,-57 120,-64 178,-38c85,37 78,-122 78,1742c0,1886 10,1700 -94,1749c-76,36 -204,76 -333,102c-111,23 -467,35 -583,19zM3851,4105c48,-8 122,-25 165,-38l79,-22l3,-1457c1,-802 0,-1458 -2,-1458c-2,0 -41,16 -86,35c-101,43 -218,79 -335,102c-137,27 -445,24 -581,-5c-113,-24 -282,-80 -356,-118l-48,-24v1350v1349l76,52c203,137 457,228 709,253c72,7 288,-4 376,-19zM1813,4090c189,-37 362,-106 535,-213l82,-52v-1352v-1353l-57,29c-237,118 -570,168 -849,127c-139,-20 -295,-64 -413,-115l-91,-39l2,1461l3,1460l45,13c51,16 234,51 295,58c94,10 343,-3 448,-24z"></path></g></g></g></g></g></svg>