<svg version="1.1" xmlns="http://www.w3.org/2000/svg" xmlns:xlink="http://www.w3.org/1999/xlink" width="512.000000pt" height="512.000000pt" viewBox="0,0,255.98958,255.98958"><g fill="#ffffff" fill-rule="nonzero" stroke="none" stroke-width="1" stroke-linecap="butt" stroke-linejoin="miter" stroke-miterlimit="10" stroke-dasharray="" stroke-dashoffset="0" font-family="none" font-weight="none" font-size="none" text-anchor="none" style="mix-blend-mode: normal"><g transform="translate(-0.00521,-0.00573) scale(0.5,0.5)"><g transform="translate(0,512) scale(0.1,-0.1)"><path d="M1872,4964c-21,-15 -22,-20 -22,-205v-189h-165c-180,0 -217,-8 -229,-52c-3,-13 -6,-281 -6,-595v-573h-364c-343,0 -365,-1 -387,-19c-23,-19 -24,-24 -27,-190l-3,-171h-108c-92,0 -110,-3 -124,-18c-16,-17 -17,-116 -19,-1173l-3,-1154l-123,-5c-107,-4 -126,-8 -138,-24c-11,-16 -14,-63 -14,-218c0,-185 1,-199 20,-218c20,-20 33,-20 818,-20c884,0 842,-3 842,63c-1,80 34,77 -799,77h-741v100v100h2280h2280v-100v-100h-616c-695,0 -673,2 -674,-77c0,-66 -29,-63 717,-63c660,0 673,0 693,20c19,19 20,33 20,218c0,155 -3,202 -14,218c-12,16 -31,20 -138,24l-123,5l-3,1224c-2,1122 -3,1226 -19,1243c-15,17 -45,18 -515,18h-498v693c0,380 -3,702 -6,715c-12,44 -49,52 -229,52h-165v189c0,185 -1,190 -22,205c-20,14 -102,16 -688,16c-586,0 -668,-2 -688,-16zM3140,4705v-135h-580h-580v135v135h580h580zM3528,2528l-3,-1903l-192,-3l-193,-2l-2,571l-3,571l-24,19c-22,18 -46,19 -551,19c-505,0 -529,-1 -551,-19l-24,-19l-3,-571l-2,-571l-193,2l-192,3l-3,1903l-2,1902h970h970zM1450,3095v-115h-320h-320v115v115h320h320zM4568,1798l-3,-1173l-447,-3l-448,-2v245v245l206,2l207,3l19,26c21,28 18,57 -8,84c-13,12 -51,15 -220,15h-204v245v245h200h201l25,26c30,29 27,67 -8,97c-18,15 -44,17 -219,17h-199v240v240h199c175,0 201,2 219,18c35,29 38,67 8,96l-25,26h-201h-200v240v240h450h450zM1133,2830h317v-170v-170h-268c-226,0 -271,-2 -290,-16c-26,-18 -30,-69 -8,-100c14,-18 31,-19 290,-22l276,-3v-169v-170h-261c-304,0 -318,-3 -319,-77c0,-60 12,-63 312,-63h268v-175v-175h-272c-239,0 -274,-2 -290,-17c-25,-22 -23,-75 3,-99c19,-18 42,-19 290,-22l269,-3v-169v-170h-268c-306,0 -312,-1 -312,-70c0,-69 6,-70 312,-70h268v-140v-140l-447,2l-448,3l-3,1095c-1,602 0,1101 3,1109c5,12 28,13 133,8c70,-4 270,-7 445,-7zM2998,1143l-3,-518h-435h-435l-3,518l-2,517h440h440z"></path><path d="M1950,3923c-32,-12 -50,-37 -50,-69c0,-66 -24,-64 662,-64c605,0 618,0 638,20c26,26 26,72 -1,96c-20,18 -47,19 -628,21c-333,1 -613,-1 -621,-4z"></path><path d="M1920,3280c-29,-29 -26,-74 6,-99c26,-21 35,-21 634,-21c599,0 608,0 634,21c32,25 35,70 6,99c-20,20 -33,20 -640,20c-607,0 -620,0 -640,-20z"></path><path d="M1950,2673c-50,-19 -68,-84 -32,-116c17,-15 76,-17 644,-17c593,0 626,1 641,18c24,26 21,75 -4,98c-20,18 -47,19 -628,21c-333,1 -613,-1 -621,-4z"></path><path d="M2213,270c-46,-19 -56,-74 -20,-108c21,-20 34,-22 148,-22c118,0 127,1 147,23c27,29 28,57 3,88c-18,23 -27,24 -138,26c-65,2 -128,-2 -140,-7z"></path><path d="M2895,268c-28,-16 -35,-28 -35,-65c0,-54 25,-63 170,-63c119,0 128,1 148,23c27,29 28,57 3,88c-18,23 -27,24 -143,27c-81,1 -130,-2 -143,-10z"></path></g></g></g></svg>