<svg version="1.1" xmlns="http://www.w3.org/2000/svg" xmlns:xlink="http://www.w3.org/1999/xlink" width="512.000000pt" height="512.000000pt" viewBox="0,0,255.98958,255.98958"><g fill="#ffffff" fill-rule="nonzero" stroke="none" stroke-width="1" stroke-linecap="butt" stroke-linejoin="miter" stroke-miterlimit="10" stroke-dasharray="" stroke-dashoffset="0" font-family="none" font-weight="none" font-size="none" text-anchor="none" style="mix-blend-mode: normal"><g transform="translate(0.0151,-0.0126) scale(0.5,0.5)"><g transform="translate(0,512) scale(0.1,-0.1)"><path d="M2447,4594c-61,-19 -1609,-865 -1663,-910c-53,-43 -101,-118 -125,-195c-18,-58 -19,-105 -19,-929c0,-824 1,-871 19,-929c24,-77 72,-152 125,-195c60,-49 1601,-891 1665,-910c72,-21 156,-20 228,2c55,18 1549,831 1638,892c52,36 109,112 139,183c21,52 21,59 24,932c3,797 1,886 -14,943c-20,76 -77,167 -131,210c-73,57 -1615,897 -1672,910c-69,16 -154,14 -214,-4zM2733,4391c278,-147 1491,-817 1493,-826c2,-6 -372,-216 -831,-467l-834,-458l-653,358c-359,197 -735,403 -835,458c-100,54 -181,103 -179,109c2,8 1219,680 1504,831c91,48 109,54 162,54c54,0 72,-6 173,-59zM1641,2962l834,-457l3,-913l2,-912l-47,24c-193,98 -1533,842 -1556,864c-16,15 -39,45 -50,67c-22,40 -22,40 -25,913c-1,479 -1,872 1,872c2,0 379,-206 838,-458zM4318,2548c-3,-873 -3,-873 -25,-913c-11,-22 -34,-53 -51,-68c-16,-15 -382,-221 -813,-458l-784,-429l-3,907c-1,499 2,911 6,915c11,11 1654,916 1665,917c4,1 6,-392 5,-871z"></path></g></g></g></svg>