<svg version="1.1" xmlns="http://www.w3.org/2000/svg" xmlns:xlink="http://www.w3.org/1999/xlink" width="512.000000pt" height="512.000000pt" viewBox="0,0,255.98958,255.98958"><g fill="#ffffff" fill-rule="nonzero" stroke="none" stroke-width="1" stroke-linecap="butt" stroke-linejoin="miter" stroke-miterlimit="10" stroke-dasharray="" stroke-dashoffset="0" font-family="none" font-weight="none" font-size="none" text-anchor="none" style="mix-blend-mode: normal"><g transform="translate(-0.00521,0.04859) scale(0.5,0.5)"><g transform="translate(0,512) scale(0.1,-0.1)"><path d="M245,4007c-90,-30 -171,-102 -216,-192c-21,-43 -24,-64 -24,-155c0,-96 2,-110 28,-160c24,-45 242,-268 1165,-1192c944,-945 1147,-1143 1197,-1170c57,-31 65,-33 165,-33c100,0 108,2 165,33c51,27 252,224 1201,1175c905,906 1145,1152 1165,1192c21,43 24,64 24,155c0,96 -3,110 -29,162c-35,69 -93,127 -166,165c-50,25 -65,28 -155,28c-175,0 -75,87 -1207,-1044l-998,-996l-997,996c-1121,1118 -1032,1041 -1193,1046c-50,1 -101,-3 -125,-10z"></path></g></g></g></svg>