<svg version="1.1" xmlns="http://www.w3.org/2000/svg" xmlns:xlink="http://www.w3.org/1999/xlink" width="512.000000pt" height="512.000000pt" viewBox="0,0,255.98958,255.98958"><g fill="#ffffff" fill-rule="nonzero" stroke="none" stroke-width="1" stroke-linecap="butt" stroke-linejoin="miter" stroke-miterlimit="10" stroke-dasharray="" stroke-dashoffset="0" font-family="none" font-weight="none" font-size="none" text-anchor="none" style="mix-blend-mode: normal"><g transform="translate(-0.12601,-0.05402) scale(0.5,0.5)"><g transform="translate(0,512) scale(0.1,-0.1)"><path d="M2380,5114c-19,-2 -78,-9 -130,-14c-1063,-116 -1978,-954 -2194,-2010c-41,-201 -50,-302 -50,-530c0,-309 33,-527 124,-800c204,-618 638,-1139 1205,-1447c571,-310 1225,-391 1858,-232c901,226 1620,946 1847,1848c120,479 103,972 -51,1434c-129,389 -331,717 -620,1006c-405,404 -919,657 -1489,731c-88,12 -438,21 -500,14zM2400,4201v-589l-72,-6c-81,-6 -1751,-26 -1756,-21c-5,5 71,135 131,225c85,126 155,210 281,335c337,336 745,546 1216,625c58,10 126,19 153,19l47,1zM2915,4770c646,-106 1199,-475 1549,-1034c31,-49 56,-92 56,-96c0,-4 -253,-10 -562,-14c-310,-3 -715,-9 -900,-12l-338,-7v592v591h38c20,0 91,-9 157,-20zM4695,3236c33,-109 71,-277 87,-391c19,-134 16,-465 -6,-605c-18,-116 -77,-365 -95,-399c-9,-17 -43,-18 -573,-24c-310,-4 -749,-10 -975,-14l-413,-6v745v746l423,6c232,4 665,11 962,15c297,4 545,9 552,9c7,1 23,-33 38,-82zM2400,2542v-749l-617,-7c-340,-3 -776,-9 -969,-13l-351,-6l-31,99c-82,256 -106,415 -106,694c0,186 4,247 22,350c19,111 74,335 84,345c2,2 379,9 838,15c855,11 1041,14 1098,18l32,2zM4500,1443c-281,-498 -791,-891 -1353,-1043c-120,-33 -328,-70 -389,-70h-38v575v575l188,1c103,1 392,5 642,8c250,4 574,8 718,9l264,2zM2400,900v-570h-37c-57,0 -265,36 -377,65c-440,114 -872,394 -1159,750c-88,110 -212,293 -204,301c6,6 874,20 1425,22l352,2z"></path></g></g></g></svg>