<svg version="1.1" xmlns="http://www.w3.org/2000/svg" xmlns:xlink="http://www.w3.org/1999/xlink" width="512.000000pt" height="589.000000pt" viewBox="0,0,222.52603,255.98958"><g fill="#aabdc9" fill-rule="nonzero" stroke="none" stroke-width="1" stroke-linecap="butt" stroke-linejoin="miter" stroke-miterlimit="10" stroke-dasharray="" stroke-dashoffset="0" font-family="none" font-weight="none" font-size="none" text-anchor="none" style="mix-blend-mode: normal"><g transform="translate(-0.00227,-0.00374) scale(1.00003,1.00004)"><g><g transform="translate(-0.0297,-0.09311) scale(0.43463,0.43463)"><g transform="translate(0,589) scale(0.1,-0.1)"><path d="M2367,5875c-592,-97 -1027,-607 -1027,-1206c0,-392 182,-755 495,-985c608,-448 1472,-243 1811,429c100,198 139,378 131,602c-22,568 -414,1030 -977,1151c-104,22 -323,27 -433,9zM2785,5396c206,-70 357,-201 450,-391c59,-120 78,-204 78,-340c0,-290 -155,-543 -413,-675c-93,-47 -159,-67 -264,-80c-360,-44 -715,196 -818,555c-27,96 -32,285 -9,375c74,290 298,510 586,574c110,25 288,16 390,-18z"></path><path d="M1140,3053c-276,-29 -559,-165 -762,-365c-171,-169 -291,-390 -355,-653c-15,-62 -17,-166 -20,-955c-4,-802 -2,-889 13,-928c23,-61 60,-101 119,-128l50,-24h2375h2375l50,24c60,28 87,56 114,116c20,44 21,61 21,884c0,924 -2,957 -62,1146c-38,120 -115,270 -188,370c-185,249 -437,413 -760,493c-84,21 -95,21 -1510,23c-784,0 -1441,-1 -1460,-3zM4060,2572c41,-13 116,-44 165,-70c73,-38 109,-65 190,-147c82,-81 109,-117 147,-190c26,-49 57,-124 70,-165c22,-75 22,-77 26,-808l3,-732h-305h-305l-3,483c-3,472 -3,483 -25,522c-54,101 -164,146 -277,113c-54,-16 -128,-90 -144,-144c-9,-30 -12,-169 -12,-508v-466h-1030h-1030v468c0,533 -1,541 -71,611c-94,94 -250,89 -334,-11c-56,-66 -55,-58 -55,-583v-485h-305h-306l3,732c4,727 4,734 26,806c96,314 352,540 672,595c14,3 655,4 1425,3l1400,-1z"></path></g></g></g></g></g></svg>