<svg version="1.1" xmlns="http://www.w3.org/2000/svg" xmlns:xlink="http://www.w3.org/1999/xlink" width="225.000000pt" height="225.000000pt" viewBox="0,0,255.98958,255.98958"><g fill="#1346b1" fill-rule="nonzero" stroke="none" stroke-width="1" stroke-linecap="butt" stroke-linejoin="miter" stroke-miterlimit="10" stroke-dasharray="" stroke-dashoffset="0" font-family="none" font-weight="none" font-size="none" text-anchor="none" style="mix-blend-mode: normal"><g transform="translate(-0.28966,0.22411) scale(1.13778,1.13778)"><g transform="translate(0,225) scale(0.1,-0.1)"><path d="M967,2193c-74,-11 -124,-276 -81,-424c62,-211 245,-381 519,-482c184,-67 326,-91 560,-91c187,-1 235,5 235,28c0,10 -33,14 -147,19c-206,7 -355,43 -516,123c-202,101 -329,243 -373,415c-29,114 -5,251 65,361c29,46 29,46 8,52c-24,6 -226,5 -270,-1z"></path><path d="M1332,2145c-45,-70 -65,-136 -66,-220c-1,-72 3,-88 32,-147c67,-136 222,-242 432,-295c89,-22 128,-26 257,-27c83,-1 154,2 157,5c4,3 4,14 0,23c-4,12 -19,16 -54,16c-71,0 -230,44 -308,85c-85,44 -162,117 -199,187c-23,45 -28,65 -28,133c0,68 5,88 28,132l27,52l-48,21c-41,19 -123,47 -187,64c-15,4 -26,-3 -43,-29z"></path><path d="M755,2135c-82,-31 -191,-87 -244,-125l-44,-32l6,-117c3,-77 12,-138 26,-181c118,-368 554,-651 1116,-725c125,-17 484,-24 543,-11c18,4 32,14 32,22c0,11 -23,14 -117,14c-564,0 -1069,242 -1243,595c-59,120 -73,188 -68,325c4,91 10,129 31,185c14,38 25,70 24,71c-1,1 -29,-8 -62,-21z"></path><path d="M1671,2009c-6,-18 -11,-47 -11,-66c0,-114 131,-211 309,-230c54,-5 63,-4 56,8c-19,32 -119,150 -159,187c-51,47 -164,132 -176,132c-4,0 -13,-14 -19,-31z"></path><path d="M287,1800c-84,-105 -168,-270 -204,-405c-25,-90 -28,-117 -28,-265c0,-181 11,-250 65,-389c60,-154 171,-318 281,-413c137,-118 283,-195 466,-245c87,-24 115,-27 253,-27c162,0 258,16 388,64c240,90 459,287 578,522c19,37 34,69 34,71c0,2 -75,7 -167,10c-428,15 -810,128 -1108,328c-299,201 -463,453 -484,744l-6,90z"></path></g></g></g></svg>